<svg width="224" height="50" viewBox="0 0 224 50" fill="none" xmlns="http://www.w3.org/2000/svg">
<path d="M165.582 33.29C164.77 33.29 163.997 33.232 163.262 33.116C162.527 33.0193 161.822 32.855 161.145 32.623V28.099C161.609 28.2923 162.131 28.4373 162.711 28.534C163.291 28.6307 163.871 28.679 164.451 28.679C165.495 28.679 166.239 28.4663 166.684 28.041C167.129 27.6157 167.351 26.91 167.351 25.924V14.324H172.803V26.794C172.803 28.824 172.184 30.419 170.947 31.579C169.729 32.7197 167.941 33.29 165.582 33.29ZM182.729 33.29C179.983 33.29 177.953 32.681 176.639 31.463C175.343 30.245 174.696 28.4663 174.696 26.127C174.696 23.807 175.353 22.038 176.668 20.82C177.982 19.5827 180.003 18.964 182.729 18.964C185.474 18.964 187.504 19.5827 188.819 20.82C190.153 22.038 190.82 23.807 190.82 26.127C190.82 28.4663 190.162 30.245 188.848 31.463C187.533 32.681 185.493 33.29 182.729 33.29ZM182.729 29.317C183.618 29.317 184.256 29.0657 184.643 28.563C185.049 28.0603 185.252 27.2483 185.252 26.127C185.252 25.025 185.049 24.2227 184.643 23.72C184.256 23.198 183.618 22.937 182.729 22.937C181.859 22.937 181.23 23.198 180.844 23.72C180.457 24.2227 180.264 25.025 180.264 26.127C180.264 27.2483 180.457 28.0603 180.844 28.563C181.23 29.0657 181.859 29.317 182.729 29.317ZM202.027 33.29C201.137 33.29 200.354 33.174 199.678 32.942C199.02 32.6907 198.411 32.3523 197.851 31.927L197.59 33H192.863V13.454H198.315V19.747C198.779 19.4957 199.32 19.3023 199.939 19.167C200.577 19.0317 201.215 18.964 201.853 18.964C203.902 18.964 205.507 19.515 206.667 20.617C207.846 21.6997 208.436 23.4977 208.436 26.011C208.436 28.4663 207.856 30.2933 206.696 31.492C205.536 32.6907 203.979 33.29 202.027 33.29ZM200.461 29.346C201.311 29.346 201.92 29.0947 202.288 28.592C202.674 28.07 202.868 27.229 202.868 26.069C202.868 24.8897 202.665 24.068 202.259 23.604C201.872 23.14 201.273 22.908 200.461 22.908C199.571 22.908 198.856 23.1497 198.315 23.633V28.505C198.914 29.0657 199.629 29.346 200.461 29.346ZM215.701 33.29C214.522 33.29 213.41 33.203 212.366 33.029C211.342 32.8743 210.53 32.6713 209.93 32.42V28.505C210.607 28.8143 211.409 29.056 212.337 29.23C213.285 29.404 214.087 29.491 214.744 29.491C215.44 29.491 215.962 29.4717 216.31 29.433C216.678 29.3943 216.861 29.23 216.861 28.94C216.861 28.6113 216.542 28.36 215.904 28.186C215.266 28.012 214.464 27.7607 213.497 27.432C212.241 26.9873 211.303 26.4653 210.684 25.866C210.066 25.2667 209.756 24.3967 209.756 23.256C209.756 21.8833 210.298 20.8297 211.38 20.095C212.463 19.341 214.164 18.964 216.484 18.964C217.374 18.964 218.292 19.0317 219.239 19.167C220.187 19.3023 220.931 19.457 221.472 19.631V23.459C220.892 23.2077 220.254 23.024 219.558 22.908C218.882 22.792 218.263 22.734 217.702 22.734C217.084 22.734 216.533 22.763 216.049 22.821C215.566 22.879 215.324 23.0433 215.324 23.314C215.324 23.6233 215.595 23.8457 216.136 23.981C216.697 24.1163 217.441 24.329 218.369 24.619C219.413 24.9283 220.225 25.2667 220.805 25.634C221.405 26.0013 221.82 26.446 222.052 26.968C222.304 27.49 222.429 28.1377 222.429 28.911C222.429 30.303 221.859 31.3857 220.718 32.159C219.597 32.913 217.925 33.29 215.701 33.29Z" fill="white"/>
<path d="M143 0.53186V49.468" stroke="#FF6720" stroke-width="2"/>
<path d="M18.5278 29.2561C18.4926 29.4452 18.4573 29.6361 18.4221 29.8252C17.539 29.9872 16.6524 30.0952 15.7657 30.155C16.707 29.8753 17.6289 29.5802 18.5278 29.2561Z" fill="#FF6720"/>
<path d="M38.2783 10.6695C35.7507 18.3279 30.5473 25.2416 23.5249 28.2799C23.5249 28.2799 23.8069 26.7617 23.8087 26.7617C29.5091 23.1852 33.3993 16.7808 34.9716 9.90946C35.5268 9.57766 37.0427 8.63049 37.0427 8.63049C37.0427 8.63049 37.843 9.93068 38.2783 10.6695Z" fill="#FF6720"/>
<path d="M26.3176 13.3007C26.3687 13.023 26.448 12.8493 26.7353 12.8262C27.9657 12.7201 29.1942 12.5021 30.4211 12.5137C31.9369 12.5253 32.9399 13.6962 33.1373 15.4709C33.9182 13.6866 34.5316 11.8212 34.9705 9.90947C34.9493 9.89211 34.9282 9.87667 34.907 9.86124C33.6961 8.95651 32.3124 8.71345 30.8917 8.64786C27.9886 8.50897 25.1772 9.12627 22.3992 9.96541C22.2512 10.0117 22.0802 10.2586 22.0449 10.4419C21.7999 11.7498 17.4585 35.0296 17.4585 35.0296H20.7071C21.6219 35.0296 22.4063 34.258 22.5913 33.2665C22.5931 33.2703 26.1061 14.4447 26.3176 13.3007Z" fill="white"/>
<path d="M37.3235 13.2273C34.7359 19.3983 30.391 24.8209 24.7505 27.7029C33.8863 30.5599 39.8987 20.7198 37.3235 13.2273Z" fill="white"/>
<path d="M16.3261 18.1368C9.6915 11.1208 -1.61945 19.1283 0.19432 28.6695C1.32242 34.6052 7.19206 35.9227 11.9424 34.5222C14.9566 33.6348 14.597 30.4345 14.597 30.4345C10.8161 31.3914 3.62092 30.531 4.21141 27.3693C7.11979 28.2624 11.5529 28.4746 14.664 26.725C18.7233 24.441 18.0306 20.2318 16.3261 18.1368ZM13.5447 22.1357C12.5311 24.4255 6.73906 24.4062 4.65384 23.7369C5.96173 20.4883 9.40067 18.5477 12.5541 19.954C13.5059 20.3803 13.9289 21.26 13.5447 22.1357Z" fill="white"/>
<path d="M57.6549 16.9446C54.8453 15.9358 51.4751 15.4728 49.0074 15.4728C42.4767 15.4728 38.3662 21.9062 38.5583 27.5506C38.6324 29.7169 39.2969 34.6341 45.2776 35.1993C46.938 35.3555 48.5226 35.1221 49.9098 33.9994C49.9204 33.9898 50.0174 33.8953 49.9944 34.0303C49.9451 34.3447 49.834 35.0353 49.834 35.0353C49.834 35.0353 52.9522 35.0353 54.431 35.0353C54.7095 35.0353 54.7483 34.8251 54.7889 34.6109C55.8517 28.9202 56.9217 23.2411 57.9722 17.5465C58.0392 17.1877 57.974 17.0565 57.6549 16.9446ZM52.5873 20.3359C52.0268 23.27 51.4839 26.208 50.9181 29.144C50.8687 29.3967 50.7489 29.6263 50.5726 29.7979C49.2294 31.1058 47.6642 31.536 45.9157 31.0962C42.5631 30.2532 43.113 25.0505 44.287 22.5408C45.3569 20.2568 47.7753 18.9663 50.2377 19.3155C52.7019 19.6627 52.6508 19.9945 52.5873 20.3359Z" fill="white"/>
<path d="M111.494 22.3383C111.15 17.8474 107.91 15.4728 104.022 15.4728C95.8678 15.4728 93.1745 22.9286 93.423 28.11C93.661 33.085 97.6816 35.4018 101.732 34.9871C105.495 34.7421 108.323 32.8613 110.071 29.1768C111.083 27.0413 111.739 24.7901 111.494 22.3383ZM100.248 30.776C96.6593 29.9677 97.8755 24.7728 98.6246 23.2411C100.433 19.5412 102.897 19.3714 104.299 19.6145C106.149 19.9328 107.2 21.3795 107.096 23.8237C106.939 27.5236 104.424 31.7154 100.248 30.776Z" fill="white"/>
<path d="M56.9675 43.4113L57.5756 40.1474C57.6673 39.7654 57.9969 39.4934 58.3583 39.4818C60.1808 39.4259 60.8048 39.0787 61.7161 37.9945C62.4124 37.0262 62.9394 36.2487 63.5246 35.3537C63.6022 35.236 63.6092 35.0257 63.581 34.8714C62.5939 29.3871 60.1033 15.4728 60.1033 15.4728C60.1033 15.4728 64.6439 15.4285 64.9294 17.4231C65.4776 21.2426 66.7749 28.9646 66.8366 29.2694C66.997 28.9666 71.2433 20.988 73.2298 17.1627C74.2045 15.2857 77.9184 15.4728 79.1452 15.4728C75.4842 22.1686 68.3737 35.153 67.2649 37.1708C64.3848 42.4063 61.8501 43.4518 59.1955 43.4152C58.4728 43.4055 56.9675 43.4113 56.9675 43.4113Z" fill="white"/>
<path d="M90.6098 29.6398C90.3524 31.0152 89.8853 33.5172 89.8695 33.6059C89.843 33.7525 89.7866 33.9146 89.6086 33.9879C87.1568 34.991 84.5392 35.4636 82.1579 34.5396C74.4515 31.5534 76.5209 18.0018 84.5692 15.8451C88.521 14.7861 92.4624 16.3197 92.6545 16.3853C92.8783 16.4624 93.0176 16.7093 92.9718 16.9601C92.8325 17.7144 92.3901 20.1026 92.3707 20.1894C90.1409 19.4004 87.7984 18.8294 85.521 19.7052C80.9945 21.449 80.0109 29.9485 84.5128 30.9438C86.6703 31.4222 88.6444 30.585 90.6098 29.6398Z" fill="white"/>
</svg>
